<svg width="29" height="29" viewBox="0 0 29 29" fill="none" xmlns="http://www.w3.org/2000/svg">
<path fill-rule="evenodd" clip-rule="evenodd" d="M14.5 23.5625C24.4688 23.5625 25.375 22.8076 25.375 14.5C25.375 6.19241 24.4688 5.4375 14.5 5.4375C4.53125 5.4375 3.625 6.19241 3.625 14.5C3.625 22.8076 4.53125 23.5625 14.5 23.5625ZM6.66003 10.1736C7.0325 9.86181 7.58713 9.91166 7.89797 10.2859C9.10781 11.7368 12.9884 15.1054 14.5 16.2599C16.037 15.0854 19.875 11.7622 21.102 10.2859C21.4129 9.91166 21.9675 9.86181 22.34 10.1736C22.7133 10.4853 22.7632 11.0408 22.4523 11.4151C21.8225 12.1746 20.6217 13.3445 19.3448 14.5C20.6217 15.6555 21.8225 16.8254 22.4523 17.5849C22.7632 17.9582 22.7133 18.5147 22.34 18.8264C21.9675 19.1382 21.4129 19.0883 21.102 18.7141C20.5021 17.9909 19.2759 16.8263 18.0008 15.6881C17.0022 16.549 16.0642 17.3094 15.4262 17.7643C15.1525 17.9573 14.8426 18.125 14.5 18.125C14.1574 18.125 13.8475 17.9573 13.5747 17.7643C12.9485 17.3184 12.0087 16.5545 11.0055 15.6872C9.72406 16.8327 8.49066 18.0036 7.89797 18.7141C7.58713 19.0883 7.0325 19.1382 6.66003 18.8264C6.28756 18.5147 6.23681 17.9592 6.54766 17.5849L6.54856 17.584C7.16753 16.839 8.37737 15.6636 9.66244 14.5C8.37737 13.3364 7.16753 12.1601 6.54856 11.416L6.54766 11.4151C6.23681 11.0408 6.28756 10.4853 6.66003 10.1736Z" fill="#CDDAED"/>
</svg>
