<svg width="29" height="29" viewBox="0 0 29 29" fill="none" xmlns="http://www.w3.org/2000/svg">
<path fill-rule="evenodd" clip-rule="evenodd" d="M17.071 25.3442C24.631 25.1258 25.375 23.5344 25.375 14.5C25.375 4.53125 24.4688 3.625 14.5 3.625C4.53125 3.625 3.625 4.53125 3.625 14.5C3.625 23.558 4.37356 25.1339 11.9879 25.346C12.054 25.2635 12.0785 25.1602 12.0785 25.0551C12.0785 24.8285 12.0694 22.5031 12.0649 21.7029C9.31262 22.282 8.73172 20.4169 8.73172 20.4169C8.28131 19.3095 7.63244 19.014 7.63244 19.014C6.73434 18.4195 7.70041 18.4313 7.70041 18.4313C8.69366 18.4993 9.21656 19.42 9.21656 19.42C10.0993 20.8854 11.5329 20.4622 12.0966 20.2166C12.1863 19.5977 12.4419 19.1744 12.7247 18.9352C10.527 18.6932 8.21697 17.8703 8.21697 14.1955C8.21697 13.1488 8.60303 12.2933 9.23559 11.6227C9.13319 11.3798 8.79425 10.4047 9.33256 9.08516C9.33256 9.08516 10.1636 8.82688 12.054 10.0675C12.8434 9.85456 13.6898 9.74853 14.5317 9.74491C15.3718 9.74853 16.2182 9.85456 17.0094 10.0675C18.8989 8.82688 19.7282 9.08516 19.7282 9.08516C20.2683 10.4047 19.9284 11.3798 19.826 11.6227C20.4604 12.2933 20.8438 13.1488 20.8438 14.1955C20.8438 17.8794 18.5301 18.6905 16.3252 18.927C16.6804 19.2234 16.9967 19.8088 16.9967 20.7033C16.9967 21.5606 16.9913 23.0767 16.9877 24.0818C16.9858 24.5793 16.9849 24.9509 16.9849 25.0551C16.9849 25.1539 17.0112 25.2581 17.071 25.3442Z" fill="#CDDAED"/>
</svg>
