<svg width="29" height="29" viewBox="0 0 29 29" fill="none" xmlns="http://www.w3.org/2000/svg">
<path fill-rule="evenodd" clip-rule="evenodd" d="M14.5 5.4375C19.1219 5.4375 21.0676 5.95859 22.0545 6.9455C23.0414 7.93241 23.5625 9.87813 23.5625 14.5C23.5625 19.1219 23.0414 21.0676 22.0545 22.0545C21.0676 23.0414 19.1219 23.5625 14.5 23.5625C9.87813 23.5625 7.93241 23.0414 6.9455 22.0545C5.95859 21.0676 5.4375 19.1219 5.4375 14.5C5.4375 9.87813 5.95859 7.93241 6.9455 6.9455C7.93241 5.95859 9.87813 5.4375 14.5 5.4375ZM14.5 3.625C23.5625 3.625 25.375 5.4375 25.375 14.5C25.375 23.5625 23.5625 25.375 14.5 25.375C5.4375 25.375 3.625 23.5625 3.625 14.5C3.625 5.4375 5.4375 3.625 14.5 3.625Z" fill="#CDDAED"/>
<path fill-rule="evenodd" clip-rule="evenodd" d="M14.5003 8.91572C13.767 8.91572 13.0408 9.06016 12.3633 9.3408C11.6858 9.62144 11.0702 10.0328 10.5516 10.5513C10.0331 11.0699 9.62173 11.6855 9.3411 12.363C9.06046 13.0405 8.91602 13.7667 8.91602 14.5C8.91602 15.2334 9.06046 15.9595 9.3411 16.6371C9.62173 17.3146 10.0331 17.9302 10.5516 18.4487C11.0702 18.9673 11.6858 19.3786 12.3633 19.6593C13.0408 19.9399 13.767 20.0843 14.5003 20.0843C15.2337 20.0843 15.9598 19.9399 16.6374 19.6593C17.3149 19.3786 17.9305 18.9673 18.449 18.4487C18.9676 17.9302 19.3789 17.3146 19.6596 16.6371C19.9402 15.9595 20.0846 15.2334 20.0846 14.5C20.0846 13.7667 19.9402 13.0405 19.6596 12.363C19.3789 11.6855 18.9676 11.0699 18.449 10.5513C17.9305 10.0328 17.3149 9.62144 16.6374 9.3408C15.9598 9.06016 15.2337 8.91572 14.5003 8.91572ZM14.5003 18.125C13.5389 18.125 12.6169 17.7431 11.9371 17.0633C11.2572 16.3835 10.8753 15.4614 10.8753 14.5C10.8753 13.5386 11.2572 12.6166 11.9371 11.9368C12.6169 11.257 13.5389 10.875 14.5003 10.875C15.4617 10.875 16.3838 11.257 17.0636 11.9368C17.7434 12.6166 18.1253 13.5386 18.1253 14.5C18.1253 15.4614 17.7434 16.3835 17.0636 17.0633C16.3838 17.7431 15.4617 18.125 14.5003 18.125ZM21.6099 8.6955C21.6099 8.86688 21.5761 9.03657 21.5105 9.1949C21.4449 9.35323 21.3488 9.4971 21.2276 9.61828C21.1065 9.73946 20.9626 9.83558 20.8043 9.90117C20.6459 9.96675 20.4762 10.0005 20.3049 10.0005C20.1335 10.0005 19.9638 9.96675 19.8055 9.90117C19.6471 9.83558 19.5033 9.73946 19.3821 9.61828C19.2609 9.4971 19.1648 9.35323 19.0992 9.1949C19.0336 9.03657 18.9999 8.86688 18.9999 8.6955C18.9999 8.3494 19.1373 8.01746 19.3821 7.77273C19.6268 7.52799 19.9588 7.3905 20.3049 7.3905C20.651 7.3905 20.9829 7.52799 21.2276 7.77273C21.4724 8.01746 21.6099 8.3494 21.6099 8.6955Z" fill="#CDDAED"/>
</svg>
