<svg width="29" height="29" viewBox="0 0 29 29" fill="none" xmlns="http://www.w3.org/2000/svg">
<path fill-rule="evenodd" clip-rule="evenodd" d="M14.5 25.375C24.4688 25.375 25.375 24.4688 25.375 14.5C25.375 4.53125 24.4688 3.625 14.5 3.625C4.53125 3.625 3.625 4.53125 3.625 14.5C3.625 24.4688 4.53125 25.375 14.5 25.375ZM19.7789 12.7772C19.7789 16.1022 17.1607 19.9375 12.373 19.9375C10.9031 19.9375 9.53466 19.5206 8.38281 18.8065C8.58672 18.8301 8.79425 18.8418 9.00359 18.8418C10.2234 18.8418 11.3463 18.4395 12.2371 17.7643C11.097 17.7444 10.1364 17.0167 9.80472 16.0171C9.96331 16.0461 10.1264 16.0624 10.2941 16.0624C10.5315 16.0624 10.7617 16.0316 10.981 15.9736C9.78931 15.7425 8.89213 14.7257 8.89213 13.5068C8.89213 13.495 8.89212 13.485 8.89303 13.4741C9.24375 13.6626 9.64431 13.7759 10.0721 13.7895C9.37244 13.3382 8.91297 12.5679 8.91297 11.6943C8.91297 11.233 9.04256 10.8016 9.2655 10.4291C10.5497 11.9525 12.4682 12.9539 14.6314 13.0591C14.587 12.8742 14.5643 12.6821 14.5643 12.4854C14.5643 11.0961 15.7298 9.96875 17.1671 9.96875C17.9157 9.96875 18.5926 10.2751 19.0675 10.7635C19.6602 10.6512 20.2175 10.4409 20.7205 10.1527C20.5257 10.7409 20.1133 11.233 19.5759 11.5447C20.1024 11.484 20.6036 11.349 21.0703 11.1487C20.7223 11.6535 20.2801 12.0966 19.7717 12.4519C19.7771 12.5597 19.7789 12.6685 19.7789 12.7772Z" fill="#CDDAED"/>
</svg>
